<?xml version="1.0" encoding="iso-8859-1"?>
<!-- Generator: Adobe Illustrator 19.0.0, SVG Export Plug-In . SVG Version: 6.00 Build 0)  -->
<svg version="1.1" id="Layer_1" xmlns="http://www.w3.org/2000/svg" xmlns:xlink="http://www.w3.org/1999/xlink" x="0px" y="0px"
	 viewBox="0 0 112.823 112.823" style="enable-background:new 0 0 112.823 112.823;" xml:space="preserve">
<g>
	<g>
		<g>
			<path style="fill:#A2D7E3;" d="M89.323,112.823H23.5c-1.999,0-3.619-1.621-3.619-3.62V38.018c0-2,1.62-3.62,3.619-3.62
				l32.911-5.504l32.912,5.504c1.998,0,3.619,1.62,3.619,3.62v71.185C92.942,111.202,91.321,112.823,89.323,112.823z"/>
		</g>
		<g>
			<path style="fill:#ACDAE5;" d="M27.859,109.384c-2.507,0-4.539-2.031-4.539-4.539l0.167-62.052
				c0.008-2.86,2.08-5.298,4.903-5.766l27.302-4.525c0.477-0.08,0.962-0.08,1.438,0l27.119,4.622
				c3.034,0.516,5.254,3.145,5.254,6.223v61.498c0,2.508-2.032,4.539-4.539,4.539H27.859z"/>
		</g>
		<g>
			<path style="fill:#F7FCFD;" d="M29.314,38.525h54.194c2.575,0,4.663,2.217,4.663,4.953v57.078c0,2.734-2.088,4.952-4.663,4.952
				H29.314c-2.576,0-4.662-2.218-4.662-4.952V43.479C24.652,40.742,26.738,38.525,29.314,38.525z"/>
		</g>
		<g>
			<path style="fill:#FEF8DB;" d="M64.565,66.854c-7.371,0.95-13.984-0.734-21.108-2.358c-5.857-1.335-12.976-3.066-18.805-0.774
				v36.834c0,2.734,2.086,4.952,4.662,4.952h54.194c2.575,0,4.663-2.218,4.663-4.952V59.242
				C80.298,61.984,73.002,65.769,64.565,66.854z"/>
		</g>
	</g>
	<g>
		<g>
			<rect x="31.417" y="47.024" style="fill:#E94C5B;" width="49.989" height="51.122"/>
		</g>
		<g>
			<rect x="34.855" y="50.463" style="fill:#FFFFFF;" width="43.111" height="44.245"/>
		</g>
		<g>
			<path style="fill:#1D1A3A;" d="M75.682,92.052H37.31v-38.03h38.372C75.682,54.022,75.682,92.052,75.682,92.052z M38.877,90.483
				h35.238V55.591H38.877V90.483z"/>
		</g>
	</g>
	<g>
		<g>
			<path style="fill:#1D1A3A;" d="M67.754,30.829L67.754,30.829c-7.384,2.323-15.302,2.323-22.684,0l0,0V19.492h22.684V30.829z"/>
		</g>
		<g>
			<rect x="39.787" style="fill:#1D1A3A;" width="33.249" height="19.492"/>
		</g>
		<g>
			<rect x="43.226" y="3.44" style="fill:#3B3954;" width="26.372" height="12.612"/>
		</g>
	</g>
</g>
<g>
</g>
<g>
</g>
<g>
</g>
<g>
</g>
<g>
</g>
<g>
</g>
<g>
</g>
<g>
</g>
<g>
</g>
<g>
</g>
<g>
</g>
<g>
</g>
<g>
</g>
<g>
</g>
<g>
</g>
</svg>
