<?xml version="1.0" encoding="iso-8859-1"?>
<!-- Generator: Adobe Illustrator 17.1.0, SVG Export Plug-In . SVG Version: 6.00 Build 0)  -->
<!DOCTYPE svg PUBLIC "-//W3C//DTD SVG 1.1//EN" "http://www.w3.org/Graphics/SVG/1.1/DTD/svg11.dtd">
<svg version="1.1" id="Capa_1" xmlns="http://www.w3.org/2000/svg" xmlns:xlink="http://www.w3.org/1999/xlink" x="0px" y="0px"
	 viewBox="0 0 210.591 210.591" style="enable-background:new 0 0 210.591 210.591;" xml:space="preserve">
<path d="M115.712,82.911c-3.195,0-6.198,1.244-8.458,3.504l-37.679,37.679c-2.259,2.26-3.503,5.263-3.503,8.458
	c0,3.194,1.244,6.198,3.503,8.456c2.259,2.26,5.263,3.504,8.457,3.504s6.198-1.244,8.458-3.503l37.68-37.68
	c4.663-4.663,4.662-12.251-0.001-16.915C121.91,84.155,118.907,82.911,115.712,82.911z M85.172,131.068l-2.991,2.991
	c-0.78,0.781-1.805,1.172-2.828,1.172s-2.048-0.391-2.828-1.172c-1.563-1.562-1.563-4.095,0-5.656l2.991-2.991
	c1.561-1.563,4.096-1.563,5.656,0C86.734,126.974,86.734,129.507,85.172,131.068z M100.982,115.258l-2.991,2.991
	c-0.78,0.781-1.805,1.172-2.828,1.172s-2.048-0.391-2.828-1.172c-1.563-1.562-1.563-4.095,0-5.656l2.991-2.991
	c1.561-1.563,4.096-1.563,5.656,0C102.545,111.163,102.545,113.696,100.982,115.258z M117.22,99.02l-2.991,2.991
	c-0.78,0.781-1.805,1.172-2.828,1.172s-2.048-0.391-2.828-1.172c-1.563-1.562-1.563-4.095,0-5.656l2.991-2.991
	c1.561-1.563,4.096-1.563,5.656,0C118.782,94.925,118.782,97.458,117.22,99.02z M209.411,57.577c-1.561-1.563-4.096-1.563-5.656,0
	l-5.077,5.077l-5.625-5.625l5.078-5.078c1.563-1.562,1.563-4.095,0-5.656c-1.561-1.563-4.096-1.563-5.656,0l-5.078,5.078
	l-5.624-5.625l5.077-5.077c1.563-1.562,1.563-4.095,0-5.656c-1.561-1.563-4.096-1.563-5.656,0l-5.077,5.077l-5.625-5.625
	l5.077-5.077c1.563-1.562,1.563-4.095,0-5.656c-1.561-1.563-4.096-1.563-5.656,0l-5.077,5.077l-5.625-5.625l5.077-5.077
	c1.563-1.562,1.563-4.095,0-5.656c-1.561-1.563-4.096-1.563-5.656,0l-5.077,5.077l-5.625-5.625l5.077-5.077
	c1.563-1.562,1.563-4.095,0-5.656c-1.561-1.563-4.096-1.563-5.656,0l-7.905,7.905c-0.061,0.061-0.103,0.131-0.159,0.195
	c-0.051,0.058-0.112,0.104-0.16,0.165L89.705,72.441c-5.626,7.171-11.742,14.07-18.178,20.506L9.542,154.934
	c-12.712,12.712-12.712,33.396,0,46.107c6.158,6.158,14.346,9.55,23.055,9.55s16.896-3.392,23.054-9.55l61.985-61.985
	c6.442-6.441,13.342-12.558,20.507-18.177l63.004-49.421c0.061-0.048,0.107-0.109,0.164-0.16c0.063-0.056,0.134-0.099,0.195-0.159
	l7.905-7.905C210.974,61.672,210.974,59.139,209.411,57.577z M129.826,108.985l-37.68,37.68c-3.77,3.771-8.782,5.847-14.114,5.847
	s-10.344-2.076-14.114-5.847c-3.77-3.77-5.846-8.782-5.846-14.113c0-5.332,2.076-10.345,5.847-14.115l37.679-37.679
	c3.771-3.771,8.782-5.847,14.114-5.847c5.331,0,10.344,2.076,14.114,5.846C137.608,88.541,137.608,101.204,129.826,108.985z"/>
<g>
</g>
<g>
</g>
<g>
</g>
<g>
</g>
<g>
</g>
<g>
</g>
<g>
</g>
<g>
</g>
<g>
</g>
<g>
</g>
<g>
</g>
<g>
</g>
<g>
</g>
<g>
</g>
<g>
</g>
</svg>
