<?xml version="1.0" encoding="iso-8859-1"?>
<!-- Generator: Adobe Illustrator 19.0.0, SVG Export Plug-In . SVG Version: 6.00 Build 0)  -->
<svg version="1.1" id="Layer_1" xmlns="http://www.w3.org/2000/svg" xmlns:xlink="http://www.w3.org/1999/xlink" x="0px" y="0px"
	 viewBox="0 0 512 512" style="enable-background:new 0 0 512 512;" xml:space="preserve">
<g>
	<polygon style="fill:#83C7C3;" points="511.995,136.284 467.403,180.876 406.845,155.639 477.929,102.217 509.672,104.539 	"/>
	<polygon style="fill:#83C7C3;" points="443.853,68.141 390.43,139.224 338.704,87.497 409.786,34.075 441.531,36.398 	"/>
</g>
<g>
	<polygon style="fill:#9AE1D3;" points="477.929,102.217 415.677,164.469 381.6,130.393 443.853,68.141 475.597,70.464 	"/>
	<polygon style="fill:#9AE1D3;" points="409.786,34.075 347.534,96.327 331.119,44.592 375.711,0 407.455,2.323 	"/>
</g>
<path style="fill:#3D7A94;" d="M102.058,450.643C85.951,466.75,49.13,503.571,49.13,503.571c-11.24,11.24-29.466,11.24-40.698-0.009
	c-11.231-11.231-11.24-29.448,0-40.688c0,0,36.821-36.821,52.928-52.928L102.058,450.643z"/>
<path style="fill:#0E4675;" d="M325.339,50.69C284.464,93.861,37.122,355.19,18.419,376.294
	c-11.32,12.769-12.071,31.62-0.009,43.683l73.616,73.616c12.062,12.062,30.914,11.311,43.683-0.009
	c21.059-18.675,281.648-265.329,325.586-306.937L325.339,50.69z"/>
<path style="fill:#83C7C3;" d="M281.901,254.5c9.439,9.439,9.448,24.742,0,34.19c-9.439,9.439-24.742,9.431-34.181-0.009
	l-24.397-24.397c-4.724-4.724-7.082-10.914-7.082-17.096s2.358-12.371,7.073-17.087c9.448-9.448,24.75-9.439,34.19,0L281.901,254.5z
	"/>
<path style="fill:#6BADB4;" d="M331.119,44.592c0,0-2.16,2.265-5.781,6.098c-42.861,47.594-48.993,112.782-12.905,148.87
	c36.018,36.018,101.302,29.736,148.861-12.913c4.062-3.85,6.106-5.772,6.106-5.772L331.119,44.592z"/>
<g>
</g>
<g>
</g>
<g>
</g>
<g>
</g>
<g>
</g>
<g>
</g>
<g>
</g>
<g>
</g>
<g>
</g>
<g>
</g>
<g>
</g>
<g>
</g>
<g>
</g>
<g>
</g>
<g>
</g>
</svg>
