<?xml version="1.0" encoding="iso-8859-1"?>
<!-- Generator: Adobe Illustrator 19.0.0, SVG Export Plug-In . SVG Version: 6.00 Build 0)  -->
<svg version="1.1" id="Layer_1" xmlns="http://www.w3.org/2000/svg" xmlns:xlink="http://www.w3.org/1999/xlink" x="0px" y="0px"
	 viewBox="0 0 150.917 150.917" style="enable-background:new 0 0 150.917 150.917;" xml:space="preserve">
<g>
	<path style="fill:#59312E;" d="M150.125,70.067c-0.784-1.498-2.254-2.477-3.956-1.983c0.692-0.201,5.691,4.527,1.267,9.768
		c-1.153,1.365-2.454,2.591-4.122,3.231c-15.498,5.943-25.434-12.317-36.096-19.771c-8.265-5.776-19.82-8.224-28.178-1.164
		c-1.516,1.28-2.715,2.765-3.581,4.378c-0.865-1.613-2.064-3.098-3.58-4.378c-8.358-7.06-19.912-4.612-28.176,1.164
		c-10.663,7.454-20.6,25.714-36.098,19.771c-1.668-0.641-2.969-1.866-4.122-3.231c-4.425-5.24,0.573-9.969,1.267-9.768
		c-1.703-0.493-3.173,0.485-3.957,1.983c-0.954,1.824-0.979,4.033-0.435,6.019c2.271,8.292,10.984,13.423,18.554,16.077
		c7.978,2.797,16.698,3.426,25.071,2.584c1.756-0.177,3.504-0.422,5.24-0.741c8.51-1.568,17.24-5.055,23.071-11.687
		c1.256-1.427,2.332-3.01,3.164-4.718c0.833,1.708,1.909,3.291,3.164,4.718c5.831,6.632,14.562,10.118,23.071,11.687
		c1.735,0.319,3.485,0.565,5.239,0.741c8.376,0.842,17.096,0.213,25.072-2.584c7.57-2.654,16.282-7.785,18.555-16.077
		C151.104,74.101,151.08,71.892,150.125,70.067z"/>
</g>
<g>
</g>
<g>
</g>
<g>
</g>
<g>
</g>
<g>
</g>
<g>
</g>
<g>
</g>
<g>
</g>
<g>
</g>
<g>
</g>
<g>
</g>
<g>
</g>
<g>
</g>
<g>
</g>
<g>
</g>
</svg>
