<?xml version="1.0" encoding="iso-8859-1"?>
<!-- Generator: Adobe Illustrator 19.0.0, SVG Export Plug-In . SVG Version: 6.00 Build 0)  -->
<svg version="1.1" id="Layer_1" xmlns="http://www.w3.org/2000/svg" xmlns:xlink="http://www.w3.org/1999/xlink" x="0px" y="0px"
	 viewBox="0 0 141.164 141.164" style="enable-background:new 0 0 141.164 141.164;" xml:space="preserve">
<g>
	<g>
		<path style="fill:#D1EBF0;" d="M117.425,10.529C117.425,4.715,112.713,0,106.897,0H39.352c-8.624,0-15.615,6.992-15.615,15.617
			v104.138c0,0.919,0.623,1.721,1.514,1.947l76.384,19.409c1.063,0.271,2.098-0.533,2.098-1.631V11.321
			c0-3.062,2.481-5.545,5.544-5.545l0,0c2.745,0,4.971,2.226,4.971,4.972v117.289l0,0c1.756,0,3.179-1.423,3.179-3.178V10.529
			H117.425z"/>
		<path style="fill:#65BBCF;" d="M109.276,5.776L109.276,5.776c-3.063,0-5.544,2.483-5.544,5.545v113.992l10.515,2.724V10.748
			C114.247,8.002,112.021,5.776,109.276,5.776z"/>
	</g>
	<g>
		<polygon style="fill:#9BD3E0;" points="23.737,83.55 23.737,87.882 103.732,102.02 103.732,97.355 		"/>
		<polygon style="fill:#E94C5B;" points="23.737,91.054 103.732,105.191 103.732,102.02 23.737,87.882 		"/>
		<polygon style="fill:#FFFDF6;" points="23.737,91.054 23.737,97.187 23.737,97.355 23.737,100.359 103.732,116.199 
			103.732,113.029 103.732,105.191 		"/>
	</g>
</g>
<g>
</g>
<g>
</g>
<g>
</g>
<g>
</g>
<g>
</g>
<g>
</g>
<g>
</g>
<g>
</g>
<g>
</g>
<g>
</g>
<g>
</g>
<g>
</g>
<g>
</g>
<g>
</g>
<g>
</g>
</svg>
